<?xml version="1.0" encoding="utf-8"?>
<!-- Uploaded to: SVG Repo, www.svgrepo.com, Generator: SVG Repo Mixer Tools -->
<svg fill="#000000" height="800px" width="800px" version="1.1" id="Layer_1" xmlns="http://www.w3.org/2000/svg" xmlns:xlink="http://www.w3.org/1999/xlink" 
	 viewBox="0 0 64 64" enable-background="new 0 0 64 64" xml:space="preserve">
<g id="Achievement">
	<path d="M51.9306145,59.0761986l-7.280098-25.4280968C48.5386162,30.1690006,51.0000153,25.1280994,51.0000153,19.5
		c0-10.4933996-8.5065956-19-18.9999962-19s-19,8.5066004-19,19c0,5.6109009,2.4467001,10.6378994,6.3142004,14.1160011
		l-7.2448997,25.3048973c-0.1152,0.4004021,0.0302992,0.8291016,0.3642998,1.0772018
		c0.3319998,0.2490005,0.7870998,0.2645988,1.1357002,0.0400009l6.6777-4.2773018l3.6455994,7.044899
		c0.1728001,0.3340034,0.5165997,0.5401001,0.887701,0.5401001c0.035099,0,0.0711994-0.0019989,0.107399-0.0058975
		c0.4111004-0.0440025,0.7518997-0.3369026,0.8584003-0.7354012l6.233099-23.2649994l6.2747002,23.4193001
		c0.1063995,0.3984985,0.4472008,0.6913986,0.8584023,0.7354012C39.1484184,63.4981003,39.1845169,63.5,39.2197189,63.5
		c0.3710976,0,0.714798-0.2060013,0.8876991-0.5400009l3.6455002-7.0429993l6.6776962,4.2764015
		c0.3497047,0.2245979,0.802803,0.2089996,1.1368027-0.0400009C51.9004173,59.9053001,52.0459175,59.4766006,51.9306145,59.0761986z
		 M15.0000181,19.5c0-9.3738003,7.6260996-17,17-17c9.3737984,0,16.9999962,7.6261997,16.9999962,17
		c0,9.3738995-7.6261978,17-16.9999962,17C22.6261177,36.5,15.0000181,28.8738995,15.0000181,19.5z M24.4824181,59.5937996
		l-2.9638996-5.7266006c-0.1289005-0.2490005-0.3574009-0.4335976-0.6289005-0.5057983
		c-0.2705002-0.0723-0.5614986-0.0283012-0.7978001,0.1240005l-5.3710995,3.4403992l6.2835999-21.9492989
		c2.6348,1.8754997,5.7595005,3.1038971,9.1543999,3.4305992L24.4824181,59.5937996z M43.9082184,53.6416016
		c-0.2363014-0.1523018-0.527401-0.1953011-0.7979012-0.1240005c-0.2714996,0.0723-0.5,0.2569008-0.6288986,0.5058975
		l-2.9637985,5.7256012l-5.7174034-21.339901c3.3944016-0.319397,6.5214005-1.5373993,9.1589012-3.4053001l6.3202019,22.0772018
		L43.9082184,53.6416016z"/>
	<path d="M32.0000191,31.5c6.6273994,0,12-5.3726006,12-12s-5.3726006-12-12-12c-6.6275005,0-12,5.3725996-12,12
		S25.3725185,31.5,32.0000191,31.5z M32.0000191,9.5c5.5139999,0,10,4.4860001,10,10c0,5.5140991-4.4860001,10-10,10
		c-5.514101,0-10-4.4859009-10-10C22.0000191,13.9860001,26.485918,9.5,32.0000191,9.5z"/>
</g>
</svg>