<svg fill="#ff0000" width="101px" height="101px" viewBox="0 0 32 32" version="1.1" xmlns="http://www.w3.org/2000/svg" stroke="#ff0000"><g id="SVGRepo_bgCarrier" stroke-width="0"></g><g id="SVGRepo_tracerCarrier" stroke-linecap="round" stroke-linejoin="round"></g><g id="SVGRepo_iconCarrier"> <title>c</title> <path d="M27.459 19.998l-0.863-0.383c-0.095-0.043-0.207-0.069-0.324-0.069-0.327 0-0.608 0.196-0.733 0.477l-0.002 0.005c-0.753 1.734-1.952 3.155-3.454 4.158l-0.034 0.022c-1.457 0.988-3.253 1.577-5.187 1.577-0.033 0-0.066-0-0.099-0l0.005 0c-0.056 0.001-0.122 0.002-0.189 0.002-2.613 0-4.972-1.088-6.649-2.835l-0.003-0.003c-1.745-1.709-2.827-4.089-2.827-6.721 0-0.082 0.001-0.165 0.003-0.247l-0 0.012c-0.002-0.070-0.003-0.152-0.003-0.235 0-2.632 1.082-5.012 2.825-6.719l0.002-0.002c1.679-1.751 4.038-2.839 6.65-2.839 0.067 0 0.134 0.001 0.2 0.002l-0.010-0c0.026-0 0.058-0 0.089-0 1.936 0 3.734 0.589 5.225 1.599l-0.033-0.021c1.536 1.025 2.735 2.446 3.465 4.12l0.024 0.061c0.126 0.286 0.407 0.483 0.735 0.483 0.117 0 0.229-0.025 0.329-0.071l-0.005 0.002 0.863-0.384c0.283-0.128 0.476-0.407 0.476-0.732 0-0.117-0.025-0.228-0.070-0.328l0.002 0.005c-0.967-2.171-2.482-3.951-4.372-5.212l-0.044-0.028c-1.847-1.247-4.123-1.991-6.573-1.991-0.039 0-0.078 0-0.116 0.001l0.006-0c-0.059-0.001-0.13-0.002-0.2-0.002-3.311 0-6.303 1.365-8.445 3.563l-0.002 0.003c-2.191 2.167-3.547 5.173-3.547 8.495 0 0.081 0.001 0.161 0.002 0.241l-0-0.012c-0.001 0.068-0.002 0.148-0.002 0.229 0 3.323 1.357 6.33 3.546 8.496l0.001 0.001c2.143 2.2 5.135 3.564 8.445 3.564 0.071 0 0.142-0.001 0.213-0.002l-0.011 0c0.034 0 0.074 0.001 0.114 0.001 2.449 0 4.724-0.744 6.611-2.017l-0.042 0.027c1.935-1.288 3.45-3.067 4.385-5.162l0.031-0.077c0.043-0.095 0.068-0.206 0.068-0.323 0-0.325-0.193-0.604-0.471-0.729l-0.005-0.002z"></path> </g></svg>