<svg fill="#ff2e2e" height="100px" width="100px" version="1.1" id="Capa_1" xmlns="http://www.w3.org/2000/svg" xmlns:xlink="http://www.w3.org/1999/xlink" viewBox="0 0 490.996 490.996" xml:space="preserve" stroke="#ff2e2e"><g id="SVGRepo_bgCarrier" stroke-width="0"></g><g id="SVGRepo_tracerCarrier" stroke-linecap="round" stroke-linejoin="round"></g><g id="SVGRepo_iconCarrier"> <g> <path d="M85.8,225.398c11.1,0,20.1,9,20.1,20.1s-9,20.1-20.1,20.1s-20.1-9-20.1-20.1C65.7,234.398,74.7,225.398,85.8,225.398z M33.2,364.098h239.2c-0.8-2.4-1.2-5-1.2-7.7v-20.6H67.3c0.4-2,0.6-4.1,0.6-6.2c0-18.6-15-33.6-33.6-33.6c-2,0-4,0.2-5.9,0.5v-102 c1.9,0.3,3.9,0.5,5.9,0.5c18.6,0,33.6-15,33.6-33.6c0-2.1-0.2-4.2-0.6-6.2h246.5c-0.7,2.6-1,5.4-1,8.2c0,18.6,15,33.6,33.6,33.6 c2.9,0,5.7-0.4,8.3-1v34.1c2.5-0.8,5.1-1.3,7.9-1.3h20.5v-68.7c0-18.3-14.9-33.2-33.2-33.2H33.2c-18.3,0-33.2,14.9-33.2,33.2v170.8 C0.1,349.198,14.9,364.098,33.2,364.098z M354.9,254.098v102.2c0,4.3,3.5,7.7,7.7,7.7h34.2c4.3,0,7.7-3.5,7.7-7.7v-102.2 c0-4.3-3.5-7.7-7.7-7.7h-34.2C358.3,246.298,354.9,249.798,354.9,254.098z M296.5,281.998c-4.3,0-7.7,3.5-7.7,7.7v66.6 c0,4.3,3.5,7.7,7.7,7.7h34.2c4.3,0,7.7-3.5,7.7-7.7v-66.6c0-4.3-3.5-7.7-7.7-7.7H296.5z M450.6,143.598c-2.3-3.3-7.2-3.3-9.5,0 l-39.3,57.4c-2.6,3.8,0.1,9,4.8,9h14.5v146.3c0,4.3,3.5,7.7,7.7,7.7H463c4.3,0,7.7-3.5,7.7-7.7v-146.3h14.5c4.6,0,7.4-5.2,4.8-9 L450.6,143.598z M191.6,172.798c40.1,0,72.7,32.6,72.7,72.7s-32.6,72.7-72.7,72.7s-72.7-32.6-72.7-72.7 S151.5,172.798,191.6,172.798z M214.7,215.198l-32.5,32.3l-13.6-13.7l-14.2,14.1l13.6,13.7l14.1,14.2l14.2-14.1l32.5-32.3 L214.7,215.198z"></path> </g> </g></svg>