<svg height="90px" width="90px" version="1.1" id="Layer_1" xmlns="http://www.w3.org/2000/svg" xmlns:xlink="http://www.w3.org/1999/xlink" viewBox="0 0 512 512" xml:space="preserve" fill="#ffffff" stroke="#ffffff"><g id="SVGRepo_bgCarrier" stroke-width="0"></g><g id="SVGRepo_tracerCarrier" stroke-linecap="round" stroke-linejoin="round"></g><g id="SVGRepo_iconCarrier"> <path style="fill:#7aff9c;" d="M406.343,377.846c-0.665,13.415-13.9,34.643-24.849,50.046c-8.728,12.28-22.476,19.993-37.493,21.204 c-61.333,4.943-122.962,4.946-184.296-0.002c-0.077-0.006-0.153-0.012-0.23-0.018c-14.913-1.202-28.529-8.979-37.197-21.173 c-10.949-15.403-24.185-36.637-24.844-50.055h308.908V377.846z"></path> <path style="fill:#2cdb1f;" d="M159.706,449.093c-0.077-0.006-0.153-0.012-0.23-0.018c-14.913-1.202-28.529-8.979-37.197-21.173 c-10.949-15.403-24.185-36.637-24.844-50.055h52.8C150.235,412.832,159.706,449.093,159.706,449.093z"></path> <path style="fill:#7aff9c;" d="M499.284,312.956H12.704c0-113.938,78.314-209.559,184.056-236.001 c7.872-1.983,15.889-3.57,24.038-4.747h70.418C408.891,89.263,499.284,190.545,499.284,312.956z"></path> <g> <path style="fill:#2cdb1f;" d="M347.066,312.956H116.859c44.133,0,79.901-35.768,79.901-79.889V76.955 c7.872-1.983,15.889-3.57,24.038-4.747h46.272c0.06,0.553,0.096,1.118,0.096,1.695v159.165 C267.165,277.188,302.933,312.956,347.066,312.956z"></path> <path style="fill:#2cdb1f;" d="M164.946,312.956h230.208c-44.133,0-79.901-35.768-79.901-79.889V76.955 c-7.872-1.983-15.889-3.57-24.038-4.747h-46.272c-0.06,0.553-0.096,1.118-0.096,1.695v159.165 C244.847,277.188,209.079,312.956,164.946,312.956z"></path> <path style="fill:#2cdb1f;" d="M275.568,72.203h-54.768C103.108,89.259,12.709,190.546,12.709,312.956h54.768 C67.477,190.546,157.877,89.259,275.568,72.203z"></path> </g> <path style="fill:#7aff9c;" d="M291.203,233.064V73.908c0-8.125-6.586-14.711-14.711-14.711h-40.984 c-8.125,0-14.711,6.586-14.711,14.711v159.156c0,44.125-35.77,79.895-79.895,79.895H9.485c-5.239,0-9.485,4.246-9.485,9.485v51.922 c0,5.239,4.246,9.485,9.485,9.485h493.03c5.239,0,9.485-4.246,9.485-9.485v-51.922c0-5.239-4.246-9.485-9.485-9.485H371.098 C326.973,312.957,291.203,277.188,291.203,233.064z"></path> <g> <path style="fill:#2cdb1f;" d="M90.535,312.957H9.485c-5.239,0-9.485,4.246-9.485,9.485v51.922c0,5.239,4.246,9.485,9.485,9.485 h81.05C90.535,383.85,90.535,312.957,90.535,312.957z"></path> <ellipse style="fill:#2cdb1f;" cx="469.333" cy="274.953" rx="10.216" ry="24.038"></ellipse> </g> </g></svg>