<svg width="100px" height="100px" viewBox="0 0 48 48" version="1" xmlns="http://www.w3.org/2000/svg" enable-background="new 0 0 48 48" fill="#000000"><g id="SVGRepo_bgCarrier" stroke-width="0"></g><g id="SVGRepo_tracerCarrier" stroke-linecap="round" stroke-linejoin="round"></g><g id="SVGRepo_iconCarrier"> <g fill="#ff3d3d"> <rect x="1" y="38" width="46" height="2"></rect> <rect x="25" y="18" width="4" height="16"></rect> <rect x="31" y="18" width="4" height="16"></rect> <rect x="37" y="18" width="4" height="16"></rect> <rect x="19" y="18" width="4" height="16"></rect> <rect x="13" y="18" width="4" height="16"></rect> <rect x="7" y="18" width="4" height="16"></rect> <polygon points="43,16 5,16 5,13 24,4 43,13"></polygon> <rect x="5" y="34" width="38" height="2"></rect> </g> <g fill="#f00000"> <rect x="25" y="16" width="4" height="2"></rect> <rect x="31" y="16" width="4" height="2"></rect> <rect x="37" y="16" width="4" height="2"></rect> <rect x="19" y="16" width="4" height="2"></rect> <rect x="13" y="16" width="4" height="2"></rect> <rect x="7" y="16" width="4" height="2"></rect> <rect x="3" y="36" width="42" height="2"></rect> <circle cx="24" cy="11" r="2"></circle> </g> </g></svg>