<svg width="101px" height="101px" viewBox="0 0 24 24" fill="none" xmlns="http://www.w3.org/2000/svg"><g id="SVGRepo_bgCarrier" stroke-width="0"></g><g id="SVGRepo_tracerCarrier" stroke-linecap="round" stroke-linejoin="round"></g><g id="SVGRepo_iconCarrier"> <path d="M16 20H18C19.1046 20 20 19.1046 20 18V16" stroke="#ff2424" stroke-width="1.032" stroke-linecap="round" stroke-linejoin="round"></path> <path d="M8 4H6C4.89543 4 4 4.89543 4 6V8" stroke="#ff2424" stroke-width="1.032" stroke-linecap="round" stroke-linejoin="round"></path> <path d="M8 20H6C4.89543 20 4 19.1046 4 18V16" stroke="#ff2424" stroke-width="1.032" stroke-linecap="round" stroke-linejoin="round"></path> <path d="M16 4H18C19.1046 4 20 4.89543 20 6V8" stroke="#ff2424" stroke-width="1.032" stroke-linecap="round" stroke-linejoin="round"></path> <path d="M6 11L6 13" stroke="#ff2424" stroke-width="1.032" stroke-linecap="round" stroke-linejoin="round"></path> <path d="M9 9L9 15" stroke="#ff2424" stroke-width="1.032" stroke-linecap="round" stroke-linejoin="round"></path> <path d="M15 9L15 15" stroke="#ff2424" stroke-width="1.032" stroke-linecap="round" stroke-linejoin="round"></path> <path d="M18 11L18 13" stroke="#ff2424" stroke-width="1.032" stroke-linecap="round" stroke-linejoin="round"></path> <path d="M12 11L12 13" stroke="#ff2424" stroke-width="1.032" stroke-linecap="round" stroke-linejoin="round"></path> </g></svg>