<svg fill="#ff0000" width="120px" height="120px" viewBox="0 0 512 512" id="Layer_1" version="1.1" xml:space="preserve" xmlns="http://www.w3.org/2000/svg" xmlns:xlink="http://www.w3.org/1999/xlink" stroke="#ff0000"><g id="SVGRepo_bgCarrier" stroke-width="0"></g><g id="SVGRepo_tracerCarrier" stroke-linecap="round" stroke-linejoin="round"></g><g id="SVGRepo_iconCarrier"> <g> <g> <path d="M152.7,455.3c-2,0-4-0.8-5.5-2.4c-2.8-3-2.6-7.8,0.4-10.6l102.9-94.8c10.6-9.8,14.7-24.5,10.6-38.4l-7-23.6 c-1.2-4,1.1-8.1,5.1-9.3c4-1.2,8.1,1.1,9.3,5.1l7,23.6c5.7,19.4,0,40-14.8,53.7l-102.9,94.8C156.3,454.7,154.5,455.3,152.7,455.3z "></path> </g> <g> <path d="M246.6,241.1c-3.2,0-6.2-2.1-7.2-5.4l-7.2-24.5c-5.7-19.4,0-40,14.8-53.7l107.2-98.8c3-2.8,7.8-2.6,10.6,0.4 c2.8,3,2.6,7.8-0.4,10.6l-107.2,98.8c-10.6,9.8-14.7,24.5-10.6,38.4l7.2,24.5c1.2,4-1.1,8.1-5.1,9.3 C248.1,241,247.3,241.1,246.6,241.1z"></path> </g> <g> <path d="M56.4,350.9c-2,0-4-0.8-5.5-2.4c-2.8-3-2.6-7.8,0.4-10.6l102.9-94.8c14.9-13.7,35.8-17.7,54.7-10.4l95.2,36.7 c13.5,5.2,28.5,2.3,39.1-7.5l107.2-98.8c3-2.8,7.8-2.6,10.6,0.4s2.6,7.8-0.4,10.6l-107.2,98.8c-14.9,13.7-35.8,17.7-54.7,10.4 l-95.2-36.7c-13.5-5.2-28.5-2.3-39.1,7.5L61.5,348.9C60.1,350.3,58.2,350.9,56.4,350.9z"></path> </g> <g> <g> <g> <g> <path d="M399.9,190c-2,0-4-0.8-5.5-2.4l-59-64c-2.8-3-2.6-7.8,0.4-10.6c3-2.8,7.8-2.6,10.6,0.4l59,64c2.8,3,2.6,7.8-0.4,10.6 C403.5,189.4,401.8,190,399.9,190z"></path> </g> <g> <path d="M426.8,165.2c-2,0-4-0.8-5.5-2.4l-59-64c-2.8-3-2.6-7.8,0.4-10.6c3-2.8,7.8-2.6,10.6,0.4l59,64c2.8,3,2.6,7.8-0.4,10.6 C430.4,164.6,428.6,165.2,426.8,165.2z"></path> </g> <g> <path d="M370.5,217.1c-2,0-4-0.8-5.5-2.4l-59-64c-2.8-3-2.6-7.8,0.4-10.6s7.8-2.6,10.6,0.4l59,64c2.8,3,2.6,7.8-0.4,10.6 C374.1,216.5,372.3,217.1,370.5,217.1z"></path> </g> <g> <path d="M338.1,247c-2,0-4-0.8-5.5-2.4l-59-64c-2.8-3-2.6-7.8,0.4-10.6s7.8-2.6,10.6,0.4l59,64c2.8,3,2.6,7.8-0.4,10.6 C341.8,246.3,339.9,247,338.1,247z"></path> </g> </g> </g> <g> <g> <g> <path d="M206,368.8c-2,0-4-0.8-5.5-2.4l-59-64c-2.8-3-2.6-7.8,0.4-10.6c3-2.8,7.8-2.6,10.6,0.4l59,64c2.8,3,2.6,7.8-0.4,10.6 C209.6,368.1,207.8,368.8,206,368.8z"></path> </g> <g> <path d="M232.8,344c-2,0-4-0.8-5.5-2.4l-59-64c-2.8-3-2.6-7.8,0.4-10.6c3-2.8,7.8-2.6,10.6,0.4l59,64c2.8,3,2.6,7.8-0.4,10.6 C236.5,343.4,234.7,344,232.8,344z"></path> </g> <g> <path d="M176.5,395.9c-2,0-4-0.8-5.5-2.4l-59-64c-2.8-3-2.6-7.8,0.4-10.6c3-2.8,7.8-2.6,10.6,0.4l59,64c2.8,3,2.6,7.8-0.4,10.6 C180.2,395.2,178.4,395.9,176.5,395.9z"></path> </g> <g> <path d="M144.2,425.7c-2,0-4-0.8-5.5-2.4l-59-64c-2.8-3-2.6-7.8,0.4-10.6c3-2.8,7.8-2.6,10.6,0.4l59,64c2.8,3,2.6,7.8-0.4,10.6 C147.8,425.1,146,425.7,144.2,425.7z"></path> </g> </g> </g> </g> </g> </g></svg>