<svg width="101px" height="101px" viewBox="0 0 32 32" enable-background="new 0 0 32 32" version="1.1" xml:space="preserve" xmlns="http://www.w3.org/2000/svg" xmlns:xlink="http://www.w3.org/1999/xlink" fill="#000000"><g id="SVGRepo_bgCarrier" stroke-width="0"></g><g id="SVGRepo_tracerCarrier" stroke-linecap="round" stroke-linejoin="round"></g><g id="SVGRepo_iconCarrier"> <g id="Layer_2"></g> <g id="Layer_3"></g> <g id="Layer_4"></g> <g id="Layer_5"></g> <g id="Layer_6"></g> <g id="Layer_7"></g> <g id="Layer_8"></g> <g id="Layer_9"></g> <g id="Layer_10"></g> <g id="Layer_11"></g> <g id="Layer_12"></g> <g id="Layer_13"></g> <g id="Layer_14"></g> <g id="Layer_15"></g> <g id="Layer_16"></g> <g id="Layer_17"></g> <g id="Layer_18"></g> <g id="Layer_19"></g> <g id="Layer_20"></g> <g id="Layer_21"></g> <g id="Layer_22"></g> <g id="Layer_23"></g> <g id="Layer_24"></g> <g id="Layer_25"></g> <g id="Layer_26"> <g> <path d="M16,27c-0.5522,0-1-0.4478-1-1v-6c0-0.5522,0.4478-1,1-1s1,0.4478,1,1v6C17,26.5522,16.5522,27,16,27z" fill="#b80000"></path> </g> <g> <path d="M11,27H7c-0.5522,0-1-0.4478-1-1s0.4478-1,1-1h3v-5c0-0.5522,0.4478-1,1-1s1,0.4478,1,1v6 C12,26.5522,11.5522,27,11,27z" fill="#b80000"></path> </g> <g> <path d="M25,27h-4c-0.5522,0-1-0.4478-1-1v-6c0-0.5522,0.4478-1,1-1s1,0.4478,1,1v5h3c0.5522,0,1,0.4478,1,1 S25.5522,27,25,27z" fill="#b80000"></path> </g> <g> <path d="M24,21H7c-3.3086,0-6-2.6914-6-6c-0.0005-3.3276,2.7373-6.0098,6.0552-6C7.5537,4.5063,11.375,1,16,1 c3.8584,0,7.2476,2.438,8.4946,6.0171C28.1245,7.272,31,10.3066,31,14C31,17.8599,27.8599,21,24,21z M7,11c-2.2056,0-4,1.7944-4,4 s1.7944,4,4,4h17c2.7568,0,5-2.2432,5-5s-2.2432-5-5-5c-0.0449,0-0.0874-0.0024-0.1289,0.0024 c-0.502,0.0576-0.9668-0.2588-1.0903-0.7461C21.9937,5.1616,19.2056,3,16,3c-3.8599,0-7,3.1401-7,7v0.1001 c0,0.3027-0.1372,0.5894-0.3735,0.7793c-0.2358,0.1899-0.5439,0.2637-0.8413,0.1973C7.5537,11.0259,7.2896,11,7,11z" fill="#b20101"></path> </g> <g> <path d="M16,31c-1.6543,0-3-1.3457-3-3s1.3457-3,3-3s3,1.3457,3,3S17.6543,31,16,31z M16,27 c-0.5513,0-1,0.4487-1,1s0.4487,1,1,1s1-0.4487,1-1S16.5513,27,16,27z" fill="#f70202"></path> </g> <g> <path d="M27,29c-1.6543,0-3-1.3457-3-3s1.3457-3,3-3s3,1.3457,3,3S28.6543,29,27,29z M27,25 c-0.5513,0-1,0.4487-1,1s0.4487,1,1,1s1-0.4487,1-1S27.5513,25,27,25z" fill="#f70202"></path> </g> <g> <path d="M5,29c-1.6543,0-3-1.3457-3-3s1.3457-3,3-3s3,1.3457,3,3S6.6543,29,5,29z M5,25c-0.5513,0-1,0.4487-1,1 s0.4487,1,1,1s1-0.4487,1-1S5.5513,25,5,25z" fill="#f70202"></path> </g> </g> </g></svg>