<svg fill="#ff3838" height="100px" width="100px" version="1.1" id="Layer_1" xmlns="http://www.w3.org/2000/svg" xmlns:xlink="http://www.w3.org/1999/xlink" viewBox="0 0 512 512" xml:space="preserve" stroke="#ff3838" stroke-width="0.00512"><g id="SVGRepo_bgCarrier" stroke-width="0"></g><g id="SVGRepo_tracerCarrier" stroke-linecap="round" stroke-linejoin="round"></g><g id="SVGRepo_iconCarrier"> <g> <g> <g> <path d="M506.245,220.091c-69.79-74.59-157.899-112.363-246.339-113.374c-0.728-0.019-1.46-0.021-2.191-0.029 c-0.49-0.002-0.979-0.019-1.469-0.019c-0.082,0-0.164-0.003-0.247-0.003c-1.399,0-2.792,0.023-4.182,0.061 c-88.164,1.228-176.113,38.985-246.025,113.324c-8.072,8.583-7.657,22.084,0.925,30.156c8.583,8.072,22.084,7.657,30.156-0.925 c27.43-29.167,57.876-51.949,90.009-68.348c-12.849,22.055-20.216,47.698-20.216,75.067c0,82.481,66.853,149.333,149.333,149.333 S405.333,338.481,405.333,256c0-27.469-7.423-53.2-20.36-75.31c32.217,16.41,62.706,39.257,90.116,68.552 c8.05,8.603,21.55,9.052,30.153,1.003C513.846,242.195,514.294,228.695,506.245,220.091z M362.667,256 c0,58.917-47.75,106.667-106.667,106.667S149.333,314.917,149.333,256c0-57.89,46.102-104.996,103.599-106.62 c1.098-0.013,2.195-0.044,3.293-0.044c0.191,0,0.38,0.006,0.571,0.007c0.668,0.001,1.335,0.02,2.003,0.027 C316.422,150.854,362.667,198.019,362.667,256z"></path> <path d="M256,170.667c-47.153,0-85.333,38.181-85.333,85.333c0,11.782,9.551,21.333,21.333,21.333s21.333-9.551,21.333-21.333 c0-23.589,19.078-42.667,42.667-42.667c11.782,0,21.333-9.551,21.333-21.333C277.333,180.218,267.782,170.667,256,170.667z"></path> </g> </g> </g> </g></svg>