<svg fill="#ff2e2e" width="100px" height="100px" viewBox="0 0 64 64" xmlns="http://www.w3.org/2000/svg" stroke="#ff2e2e" stroke-width="0.00064"><g id="SVGRepo_bgCarrier" stroke-width="0"></g><g id="SVGRepo_tracerCarrier" stroke-linecap="round" stroke-linejoin="round"></g><g id="SVGRepo_iconCarrier"> <g id="a"></g> <g id="b"> <path d="M57,24.5c0-7.4438-6.729-13.5-15-13.5-3.8437,0-7.343,1.319-10,3.4663-2.657-2.1473-6.1563-3.4663-10-3.4663-8.271,0-15,6.0562-15,13.5,0,5.9385,4.2883,10.9832,10.2199,12.7849-.1334,.7225-.2199,1.4591-.2199,2.2151,0,7.4438,6.729,13.5,15,13.5s15-6.0562,15-13.5c0-.756-.0865-1.4926-.2199-2.2151,5.9316-1.8017,10.2199-6.8464,10.2199-12.7849Zm-48,0c0-6.3413,5.8315-11.5,13-11.5,3.2584,0,6.2325,1.0735,8.5164,2.8318-2.191,2.3473-3.5164,5.3699-3.5164,8.6682,0,.756,.0865,1.4926,.2199,2.2151-4.4852,1.3624-8.0266,4.5771-9.4875,8.6353-5.0754-1.5671-8.7324-5.8329-8.7324-10.8504Zm26,0c0,.5961-.0674,1.1772-.1667,1.7491-.9186-.1588-1.864-.2491-2.8333-.2491s-1.9147,.0903-2.8333,.2491c-.0994-.5719-.1667-1.153-.1667-1.7491,0-2.7874,1.1282-5.3452,3-7.338,1.8718,1.9927,3,4.5505,3,7.338Zm-3,7.338c-1.004-1.0689-1.7841-2.3041-2.3005-3.6467,.7481-.1188,1.5143-.1913,2.3005-.1913s1.5524,.0724,2.3005,.1913c-.5164,1.3426-1.2966,2.5778-2.3005,3.6467Zm4.2676-3.1884c3.7682,1.1635,6.7463,3.814,8.033,7.1591-.7481,.1188-1.5143,.1913-2.3005,.1913-3.2584,0-6.2325-1.0735-8.5164-2.8318,1.2291-1.3167,2.182-2.8465,2.7839-4.5186Zm-5.7512,4.5186c-2.2838,1.7582-5.258,2.8318-8.5164,2.8318-.7862,0-1.5524-.0724-2.3005-.1913,1.2866-3.3451,4.2648-5.9957,8.033-7.1591,.6019,1.6721,1.5549,3.2019,2.7839,4.5186Zm14.4836,6.3318c0,6.3413-5.8315,11.5-13,11.5s-13-5.1587-13-11.5c0-.5961,.0674-1.1772,.1667-1.7491,.9186,.1588,1.864,.2491,2.8333,.2491,3.8437,0,7.343-1.319,10-3.4663,2.657,2.1473,6.1563,3.4663,10,3.4663,.9692,0,1.9147-.0903,2.8333-.2491,.0994,.5719,.1667,1.153,.1667,1.7491Zm1.2676-4.1496c-1.4609-4.0582-5.0023-7.2729-9.4875-8.6353,.1334-.7225,.2199-1.4591,.2199-2.2151,0-3.2983-1.3253-6.3209-3.5164-8.6682,2.2838-1.7582,5.258-2.8318,8.5164-2.8318,7.1685,0,13,5.1587,13,11.5,0,5.0175-3.657,9.2833-8.7324,10.8504Z"></path> </g> </g></svg>