<?xml version="1.0" standalone="no"?>
<!DOCTYPE svg PUBLIC "-//W3C//DTD SVG 20010904//EN"
 "http://www.w3.org/TR/2001/REC-SVG-20010904/DTD/svg10.dtd">
<svg version="1.0" xmlns="http://www.w3.org/2000/svg"
 width="300.000000pt" height="255.000000pt" viewBox="0 0 300.000000 255.000000"
 preserveAspectRatio="xMidYMid meet">
<metadata>
Created by potrace 1.10, written by Peter Selinger 2001-2011
</metadata>
<g transform="translate(0.000000,255.000000) scale(0.100000,-0.100000)"
fill="#000000" stroke="none">
<path d="M1456 2482 c-44 -76 -488 -805 -546 -897 -21 -33 -120 -195 -220
-360 -100 -165 -202 -332 -226 -371 -24 -39 -44 -73 -44 -75 0 -2 486 -4 1080
-4 594 0 1080 2 1080 6 0 3 -14 27 -31 55 -18 27 -69 110 -114 184 -45 74
-149 245 -232 380 -468 766 -624 1022 -659 1082 -21 37 -41 67 -44 67 -3 0
-23 -30 -44 -67z m77 -45 c10 -20 23 -37 29 -37 5 0 7 -4 4 -9 -3 -5 3 -20 14
-34 11 -14 20 -30 20 -36 0 -6 4 -11 9 -11 5 0 15 -16 22 -35 7 -19 16 -35 20
-35 4 0 17 -21 30 -47 12 -27 41 -73 63 -103 22 -30 31 -48 21 -40 -12 9 -8 1
8 -18 15 -19 27 -38 27 -43 0 -6 5 -7 10 -4 6 4 9 3 8 -2 -2 -4 7 -24 18 -43
12 -19 38 -62 58 -95 21 -32 44 -74 53 -92 8 -18 19 -33 24 -33 5 0 9 -5 9
-10 0 -6 15 -34 34 -63 18 -28 50 -78 70 -109 20 -31 36 -59 36 -62 0 -4 15
-28 34 -54 18 -27 37 -58 40 -70 4 -12 11 -22 16 -22 5 0 14 -16 21 -35 7 -19
17 -35 21 -35 4 0 8 -9 8 -20 0 -11 6 -23 14 -26 15 -6 52 -73 48 -86 -1 -5 2
-8 6 -8 9 0 72 -86 72 -99 0 -5 7 -14 15 -21 8 -7 12 -16 9 -21 -3 -5 -1 -9 4
-9 6 0 13 -11 16 -25 4 -14 11 -23 17 -20 5 4 9 3 8 -2 -3 -13 12 -46 38 -80
l24 -32 -1020 -1 c-561 0 -1022 3 -1025 8 -2 4 21 48 53 98 31 49 60 96 64
104 3 8 33 58 66 110 101 161 141 229 141 240 0 5 5 10 10 10 6 0 16 12 22 28
7 15 20 38 30 51 10 13 15 28 11 34 -3 6 -1 7 5 3 7 -4 12 -2 12 5 0 7 11 27
25 45 14 18 25 37 25 42 0 4 16 31 35 58 19 27 35 52 35 57 0 4 16 30 35 57
19 27 35 54 35 59 0 18 77 121 84 113 4 -4 6 -2 5 3 -2 6 2 20 9 31 6 12 8 24
5 28 -3 3 -2 6 4 6 6 0 20 18 31 39 26 50 45 82 55 95 20 26 109 176 132 224
15 28 31 52 36 52 5 0 9 5 9 10 0 18 32 61 43 57 6 -2 19 -20 30 -40z"/>
<path d="M40 590 c0 -7 493 -10 1460 -10 967 0 1460 3 1460 10 0 7 -493 10
-1460 10 -967 0 -1460 -3 -1460 -10z"/>
<path d="M1327 498 c-77 -11 -126 -50 -127 -101 0 -67 49 -92 199 -102 130 -9
166 -29 140 -77 -31 -58 -173 -64 -287 -11 -31 15 -34 14 -47 -3 -21 -28 -19
-30 31 -55 57 -27 205 -38 273 -19 89 24 128 103 81 163 -27 34 -67 46 -187
56 -111 10 -143 22 -143 52 0 49 159 65 255 25 38 -16 40 -16 57 6 17 23 17
23 -25 41 -52 23 -156 35 -220 25z"/>
<path d="M2693 498 c-94 -10 -134 -40 -136 -102 -2 -69 39 -89 203 -101 105
-7 140 -22 140 -60 0 -42 -41 -60 -140 -60 -67 0 -95 5 -134 23 -37 17 -52 19
-62 11 -61 -51 128 -107 281 -85 52 8 109 52 119 91 4 14 0 40 -8 59 -20 47
-62 63 -197 75 -60 5 -117 15 -125 22 -21 18 -13 51 16 67 33 17 161 10 214
-12 36 -15 40 -15 58 0 26 24 23 30 -24 49 -59 23 -131 32 -205 23z"/>
<path d="M62 315 l3 -186 193 -2 192 -2 0 28 0 27 -165 0 -165 0 0 55 0 55
110 0 110 0 0 28 0 27 -110 -3 -110 -4 0 51 0 51 160 0 160 0 0 30 0 30 -190
0 -190 0 2 -185z"/>
<path d="M610 311 l0 -189 31 2 31 1 -1 150 c-1 95 -6 152 -13 156 -6 4 -7 12
-3 19 5 8 13 2 25 -18 10 -16 75 -90 144 -164 111 -120 129 -136 163 -140 21
-3 40 -4 43 -3 3 2 4 87 2 189 l-3 186 -29 0 -30 0 0 -150 c0 -118 3 -150 13
-150 8 0 14 -7 14 -15 0 -21 -6 -19 -35 13 -14 15 -68 74 -121 131 -52 56
-109 118 -125 137 -23 28 -36 34 -67 34 l-39 0 0 -189z"/>
<path d="M1772 313 l3 -188 30 0 30 0 3 188 2 187 -35 0 -35 0 2 -187z"/>
<path d="M2104 373 c-37 -71 -82 -154 -101 -186 -18 -32 -33 -60 -33 -62 0 -1
15 -3 34 -2 29 1 37 7 57 44 l24 43 125 0 126 0 21 -42 c17 -36 25 -43 52 -45
18 -1 31 2 29 7 -2 5 -46 90 -98 189 l-95 180 -37 1 -37 0 -67 -127z m146 -5
c23 -46 47 -89 52 -95 8 -10 -11 -13 -90 -13 l-101 0 47 94 c26 52 48 95 49
95 1 1 20 -36 43 -81z"/>
<path d="M40 50 c0 -7 493 -10 1460 -10 967 0 1460 3 1460 10 0 7 -493 10
-1460 10 -967 0 -1460 -3 -1460 -10z"/>
</g>
</svg>
