<svg fill="#ff2e2e" width="100px" height="100px" viewBox="0 0 32 32" xmlns="http://www.w3.org/2000/svg" stroke="#ff2e2e" stroke-width="0.00032"><g id="SVGRepo_bgCarrier" stroke-width="0"></g><g id="SVGRepo_tracerCarrier" stroke-linecap="round" stroke-linejoin="round"></g><g id="SVGRepo_iconCarrier"><title></title><path d="M26.926,20.011,23.22,18.067l-1.278-3.639L20.25,9.6c0-.013-.019-.05-.034-.085L19.009,6.073a3.273,3.273,0,0,0-6.043.063l-1.192,3.4V9.54c-.01.024-.02.048-.022.057L9.782,15.214l0,.011-.993,2.838L5.075,20.011a2,2,0,0,0,0,3.542l7.645,4a7.129,7.129,0,0,0,6.563,0l7.642-4a2,2,0,0,0,0-3.542ZM14.829,6.859A1.25,1.25,0,0,1,16,6.09a1.225,1.225,0,0,1,1.146.707L18,9.247a10.218,10.218,0,0,1-4.008,0Zm-1.5,4.283a11.824,11.824,0,0,0,2.674.3,11.824,11.824,0,0,0,2.672-.3l.6,1.7.805,2.3A8.585,8.585,0,0,1,16,16.082a8.583,8.583,0,0,1-4.073-.942Zm-2.81,8v-.006a.837.837,0,0,0,.045-.108l.695-1.983A10.706,10.706,0,0,0,16,18.082a10.7,10.7,0,0,0,4.744-1.037l.722,2.056.019.045a2.107,2.107,0,0,1,.076.29,2.2,2.2,0,0,1,.055.215,2.237,2.237,0,0,1,.007.344c0,.057.008.114,0,.171a2.157,2.157,0,0,1-.089.414c-.008.027-.009.055-.018.082a1.9,1.9,0,0,1-.221.445,1.042,1.042,0,0,1-.818.505H11.521a1.042,1.042,0,0,1-.818-.505A2.165,2.165,0,0,1,10.516,19.142ZM26,21.78h0l-7.639,4a5.124,5.124,0,0,1-4.714,0L6,21.783l2.4-1.259c0,.023.013.044.017.066a4.109,4.109,0,0,0,.2.8c.008.023.02.044.029.067a3.868,3.868,0,0,0,.4.771,2.987,2.987,0,0,0,2.472,1.381h8.957A2.987,2.987,0,0,0,22.95,22.23a3.848,3.848,0,0,0,.395-.763c.011-.028.024-.053.035-.081a4.076,4.076,0,0,0,.194-.771c.005-.033.02-.063.024-.1L26,21.775Z"></path></g></svg>